<svg height="504pt" viewBox="0 0 504.12108 504" width="504pt" xmlns="http://www.w3.org/2000/svg"><path d="m193.132812 218.289062v33.574219h-109.113281v-33.574219c0-4.632812 3.757813-8.390624 8.394531-8.390624h92.328126c4.632812 0 8.390624 3.757812 8.390624 8.390624zm0 0" fill="#9e9d24"/><path d="m184.742188 209.898438h-92.328126c0-21.992188 19.890626-29.628907 33.488282-32.234376h.167968c4.125-.796874 8.308594-1.246093 12.507813-1.339843 0 0 46.164063 0 46.164063 33.574219zm0 0" fill="#ffb301"/><path d="m335.824219 218.289062v33.574219h-109.117188v-33.574219c0-4.632812 3.757813-8.390624 8.394531-8.390624h92.328126c4.636718 0 8.394531 3.757812 8.394531 8.390624zm0 0" fill="#9e9d24"/><path d="m167.953125 218.289062v33.574219h-83.933594v-33.574219c0-4.632812 3.757813-8.390624 8.394531-8.390624h67.144532c4.636718 0 8.394531 3.757812 8.394531 8.390624zm0 0" fill="#cddc39"/><path d="m310.640625 218.289062v33.574219h-83.933594v-33.574219c0-4.632812 3.757813-8.390624 8.394531-8.390624h67.148438c4.632812 0 8.390625 3.757812 8.390625 8.390624zm0 0" fill="#cddc39"/><path d="m327.429688 209.898438h-92.328126c0-21.992188 19.890626-29.628907 33.488282-32.234376h.167968c4.125-.796874 8.308594-1.246093 12.507813-1.339843 0 0 46.164063 0 46.164063 33.574219zm0 0" fill="#ffb301"/><path d="m159.558594 209.898438h-67.144532c0-21.992188 19.890626-29.628907 33.488282-32.234376h.167968c13.597657 2.605469 33.488282 10.242188 33.488282 32.234376zm0 0" fill="#ffeb3a"/><path d="m302.25 209.898438h-67.148438c0-21.992188 19.890626-29.628907 33.488282-32.234376h.167968c13.597657 2.605469 33.492188 10.242188 33.492188 32.234376zm0 0" fill="#ffeb3a"/><path d="m50.445312 251.863281h402.886719c9.269531 0 16.785157 7.515625 16.785157 16.789063v125.898437c0 9.273438-7.515626 16.789063-16.785157 16.789063h-402.886719c-9.269531 0-16.785156-7.515625-16.785156-16.789063v-125.898437c0-9.273438 7.515625-16.789063 16.785156-16.789063zm0 0" fill="#f57c00"/><path d="m50.445312 251.863281h377.703126c9.273437 0 16.789062 7.515625 16.789062 16.789063v125.898437c0 9.273438-7.515625 16.789063-16.789062 16.789063h-377.703126c-9.269531 0-16.785156-7.515625-16.785156-16.789063v-125.898437c0-9.273438 7.515625-16.789063 16.785156-16.789063zm0 0" fill="#ff9801"/><path d="m449.890625 13.40625c-3.160156-3.167969-7.445313-4.949219-11.921875-4.953125h-372.164062c-4.472657.003906-8.761719 1.785156-11.917969 4.953125l-37.015625 37.015625h470.035156zm0 0" fill="#cc4b4c"/><path d="m117.59375 8.453125-33.574219 41.96875h-67.148437l37.015625-37.015625c3.15625-3.167969 7.445312-4.949219 11.917969-4.953125zm0 0" fill="#f44335"/><path d="m176.347656 8.453125-25.179687 41.96875h-67.148438l33.574219-41.96875zm0 0" fill="#cfd8dc"/><path d="m235.101562 8.453125-16.789062 41.96875h-67.144531l25.179687-41.96875zm0 0" fill="#f44335"/><path d="m285.460938 50.421875h-67.148438l16.789062-41.96875h33.574219zm0 0" fill="#cfd8dc"/><path d="m352.609375 50.421875h-67.148437l-16.785157-41.96875h58.753907zm0 0" fill="#f44335"/><path d="m419.757812 50.421875h-67.148437l-25.179687-41.96875h58.753906zm0 0" fill="#cfd8dc"/><path d="m486.90625 50.421875h-67.148438l-33.574218-41.96875h51.785156c4.476562.003906 8.761719 1.785156 11.921875 4.953125zm0 0" fill="#c52828"/><path d="m461.722656 50.421875h-41.964844l-33.574218-41.96875h26.605468c4.472657.003906 8.761719 1.785156 11.921876 4.953125zm0 0" fill="#f44335"/><path d="m16.871094 50.421875h67.148437v16.785156c0 18.542969-15.03125 33.574219-33.574219 33.574219-18.542968 0-33.574218-15.03125-33.574218-33.574219zm0 0" fill="#c52828"/><path d="m84.019531 50.421875h67.148438v16.785156c0 18.542969-15.03125 33.574219-33.574219 33.574219s-33.574219-15.03125-33.574219-33.574219zm0 0" fill="#9e9e9e"/><path d="m151.167969 50.421875h67.144531v16.785156c0 18.542969-15.03125 33.574219-33.570312 33.574219-18.542969 0-33.574219-15.03125-33.574219-33.574219zm0 0" fill="#c52828"/><path d="m285.460938 50.421875h67.148437v16.785156c0 18.542969-15.03125 33.574219-33.574219 33.574219-18.542968 0-33.574218-15.03125-33.574218-33.574219zm0 0" fill="#c52828"/><path d="m352.609375 50.421875h67.148437v16.785156c0 18.542969-15.03125 33.574219-33.574218 33.574219-18.542969 0-33.574219-15.03125-33.574219-33.574219zm0 0" fill="#9e9e9e"/><path d="m419.757812 50.421875h67.148438v16.785156c0 18.542969-15.035156 33.574219-33.574219 33.574219-18.542969 0-33.574219-15.03125-33.574219-33.574219zm0 0" fill="#c52828"/><path d="m218.3125 50.421875h67.148438v16.785156c0 18.542969-15.03125 33.574219-33.574219 33.574219-18.539063 0-33.574219-15.03125-33.574219-33.574219zm0 0" fill="#9e9e9e"/><path d="m419.757812 184.714844v67.148437h-50.363281v-67.148437c-.019531-4.789063 1.351563-9.484375 3.945313-13.511719 3.101562-5.34375 4.644531-11.449219 4.449218-17.625v-2.433594c-.03125-4.0625 1.464844-7.988281 4.199219-10.996093.25-.253907.5-.589844.753907-.839844 4.800781-4.773438 11.996093-6.195313 18.25-3.609375 6.253906 2.585937 10.34375 8.675781 10.371093 15.445312v2.433594c-.195312 6.175781 1.347657 12.28125 4.449219 17.625 2.59375 4.027344 3.964844 8.722656 3.945312 13.511719zm0 0" fill="#6a1b9a"/><path d="m402.96875 184.714844v67.148437h-25.179688v-67.148437c-.019531-4.789063 1.351563-9.484375 3.945313-13.511719 3.101563-5.34375 4.644531-11.449219 4.449219-17.625v-2.433594c-.035156-4.0625 1.464844-7.988281 4.195312-10.996093 2.730469 3.007812 4.230469 6.933593 4.199219 10.996093v2.433594c-.195313 6.175781 1.34375 12.28125 4.445313 17.625 2.597656 4.027344 3.964843 8.722656 3.945312 13.511719zm0 0" fill="#9d27b0"/><path d="m369.394531 184.714844h50.363281v33.574218h-50.363281zm0 0" fill="#ad1457"/><path d="m369.394531 184.714844h33.574219v33.574218h-33.574219zm0 0" fill="#e91e63"/><path d="m192.882812 341.925781c-.230468 2.652344-1.699218 5.046875-3.960937 6.449219-2.265625 1.40625-5.058594 1.660156-7.539063.683594l-14.015624-5.539063-75.710938-29.796875c-2.472656-.941406-4.355469-2.992187-5.082031-5.539062-.726563-2.542969-.210938-5.28125 1.390625-7.386719 7.195312-9.25 17.523437-15.546875 29.039062-17.710937h.085938c12.445312-2.464844 25.339844-1.238282 37.097656 3.527343 25.515625 9.988281 41.042969 33.238281 38.695312 55.3125zm0 0" fill="#ffb301"/><path d="m167.703125 341.925781c-.0625.539063-.175781 1.074219-.335937 1.59375l-75.710938-29.796875c-2.472656-.941406-4.355469-2.992187-5.082031-5.539062-.726563-2.542969-.210938-5.28125 1.390625-7.386719 7.195312-9.25 17.523437-15.546875 29.039062-17.710937h.085938c4.078125.777343 8.074218 1.957031 11.917968 3.527343 25.515626 9.988281 41.042969 33.238281 38.695313 55.3125zm0 0" fill="#ffeb3a"/><path d="m51.285156 496.808594c.226563.117187.386719.320312.628906.421875.339844.09375.683594.164062 1.03125.207031 37.035157 14.632812 79.253907 1.144531 100.941407-32.25s16.84375-77.449219-11.582031-105.332031c-28.429688-27.882813-72.566407-31.875-105.539063-9.546875-32.96875 22.332031-45.640625 64.800781-30.292969 101.546875 8.433594 20.300781 24.539063 36.453125 44.8125 44.953125zm-25.550781-43.847656 39.644531-16.441407c.582032.652344 1.203125 1.269531 1.851563 1.855469l-16.40625 39.617188c-10.46875-5.929688-19.136719-14.578126-25.089844-25.03125zm-6.394531-50.929688 39.617187 16.402344c-.050781.863281-.050781 1.726562 0 2.589844l-39.652343 16.429687c-3.171876-11.597656-3.164063-23.832031.035156-35.421875zm129.394531 0c3.183594 11.589844 3.183594 23.828125 0 35.421875l-39.617187-16.402344c.046874-.863281.046874-1.730469 0-2.59375zm-64.714844 9.308594c1.058594.007812 2.105469.214844 3.089844.613281l.097656.074219h.128907c2.007812.847656 3.601562 2.453125 4.4375 4.464844.824218 2.019531.824218 4.277343 0 6.296874l-.074219.101563v.125c-1.773438 4.179687-6.566407 6.167969-10.777344 4.464844l-.101563-.074219h-.125c-4.175781-1.769531-6.160156-6.558594-4.464843-10.761719l.074219-.117187v-.125c1.332031-3.078125 4.363281-5.066406 7.714843-5.0625zm-17.710937 73.082031 16.410156-39.625c.4375 0 .839844.125 1.300781.125.460938 0 .839844-.101563 1.292969-.125l16.425781 39.648437c-11.597656 3.183594-23.835937 3.175782-35.429687-.023437zm50.941406-6.40625-16.445312-39.640625c.652343-.585938 1.273437-1.203125 1.855468-1.855469l39.609375 16.410157c-5.925781 10.464843-14.570312 19.132812-25.019531 25.085937zm25.003906-91.488281-39.59375 16.417968c-.582031-.652343-1.203125-1.269531-1.855468-1.855468l16.367187-39.507813c10.457031 5.902344 19.125 14.519531 25.082031 24.945313zm-40.542968-31.425782-16.390626 39.585938c-.863281-.050781-1.730468-.050781-2.59375 0l-16.425781-39.660156c11.578125-3.277344 23.84375-3.257813 35.410157.058594zm-50.921876 6.363282 16.441407 39.625c-.648438.585937-1.269531 1.203125-1.851563 1.855468l-39.609375-16.425781c5.929688-10.457031 14.574219-19.121093 25.019531-25.070312zm0 0"/><path d="m451.863281 342.1875c-42.699219-17.90625-91.828125 2.191406-109.734375 44.890625-17.902344 42.699219 2.195313 91.828125 44.894532 109.730469.226562.117187.386718.320312.628906.421875.332031.09375.671875.164062 1.015625.207031 42.878906 17.457031 91.789062-3.152344 109.246093-46.03125 17.453126-42.878906-3.15625-91.789062-46.035156-109.246094zm-96.835937 95.265625c-3.191406-11.59375-3.191406-23.832031 0-35.421875l39.609375 16.402344c-.042969.835937-.042969 1.726562 0 2.589844zm61.617187-9.941406-.101562-.074219h-.117188c-4.171875-1.769531-6.160156-6.554688-4.476562-10.761719l.078125-.117187v-.125c.847656-2.007813 2.457031-3.605469 4.472656-4.441406 2.019531-.832032 4.285156-.832032 6.304688 0l.101562.078124h.125c2.007812.847657 3.597656 2.449219 4.429688 4.464844.828124 2.015625.828124 4.277344 0 6.292969l-.066407.101563v.125c-1.769531 4.1875-6.566406 6.175781-10.777343 4.46875zm28.160157-9.070313 39.640624-16.425781c3.195313 11.589844 3.195313 23.828125 0 35.417969l-39.609374-16.398438c.007812-.875.007812-1.730468-.03125-2.59375zm33.21875-31.894531-39.640626 16.398437c-.582031-.648437-1.195312-1.269531-1.839843-1.855468l16.417969-39.648438c10.472656 5.929688 19.132812 14.589844 25.0625 25.0625zm-58.265626-33.960937c5.988282.023437 11.949219.851562 17.71875 2.46875l-16.425781 39.648437c-.863281-.050781-1.730469-.050781-2.59375 0l-16.433593-39.683594c5.773437-1.605469 11.738281-2.425781 17.734374-2.433593zm-33.230468 8.894531 16.441406 39.609375c-.640625.578125-1.253906 1.195312-1.828125 1.839844l-39.609375-16.410157c5.917969-10.453125 14.546875-19.113281 24.980469-25.070312zm-25.0625 91.492187 39.632812-16.453125c.578125.644531 1.1875 1.257813 1.832032 1.839844l-16.410157 39.617187c-10.457031-5.929687-19.121093-14.570312-25.070312-25.015624zm40.582031 31.457032 16.410156-39.625c.433594 0 .839844.125 1.300781.125.460938 0 .839844-.101563 1.292969-.125l16.425781 39.648437c-11.605468 3.183594-23.851562 3.171875-35.445312-.03125zm50.929687-6.40625-16.433593-39.648438c.644531-.585938 1.257812-1.207031 1.839843-1.855469l39.609376 16.402344c-5.929688 10.464844-14.578126 19.136719-25.03125 25.09375zm0 0"/><path d="m192.796875 419.734375h118.265625c4.636719 0 8.394531-3.757813 8.394531-8.394531 0-4.636719-3.757812-8.394532-8.394531-8.394532h-118.265625c-4.632813 0-8.390625 3.757813-8.390625 8.394532 0 4.636718 3.757812 8.394531 8.390625 8.394531zm0 0"/><path d="m42.050781 108.335938v136.679687c-10.023437 3.542969-16.742187 13.003906-16.785156 23.636719v54.304687c0 4.636719 3.757813 8.394531 8.394531 8.394531 4.632813 0 8.390625-3.757812 8.390625-8.394531v-54.304687c0-4.636719 3.757813-8.394532 8.394531-8.394532h402.886719c4.632813 0 8.390625 3.757813 8.390625 8.394532v54.304687c0 4.636719 3.757813 8.394531 8.394532 8.394531 4.636718 0 8.394531-3.757812 8.394531-8.394531v-54.304687c-.042969-10.632813-6.761719-20.09375-16.789063-23.636719v-136.679687c19.527344-4.015626 33.550782-21.191407 33.574219-41.128907v-16.785156c0-.183594-.089844-.335937-.101563-.519531-.046874-.757813-.199218-1.503906-.453124-2.21875-.089844-.265625-.15625-.527344-.273438-.789063-.398438-.882812-.945312-1.695312-1.621094-2.390625l-37.058594-37.066406c-4.710937-4.742188-11.125-7.3984375-17.808593-7.375h-372.183594c-6.683594-.0234375-13.097656 2.632812-17.8125 7.375l-37.046875 37.050781c-.675781.699219-1.226562 1.515625-1.621094 2.40625-.117187.261719-.183594.523438-.277344.789063-.25.714844-.402343 1.460937-.453124 2.21875-.015626.183594-.109376.335937-.109376.519531v16.785156c.027344 19.9375 14.046876 37.113281 33.574219 41.128907zm-16.785156-41.128907v-8.390625h50.359375v8.390625c0 13.90625-11.273438 25.179688-25.179688 25.179688s-25.179687-11.273438-25.179687-25.179688zm136.257813-50.359375-15.105469 25.179688h-44.941407l20.144532-25.179688zm61.179687 0-10.070313 25.179688h-46.644531l15.109375-25.179688zm40.289063 0 10.074218 25.179688h-42.355468l10.074218-25.179688zm59.6875 0 15.105468 25.179688h-46.640625l-10.074219-25.179688zm59.472656 0 20.144531 25.179688h-44.9375l-15.109375-25.179688zm29.210937 50.359375c0 13.90625-11.273437 25.179688-25.179687 25.179688s-25.179688-11.273438-25.179688-25.179688v-8.390625h50.359375zm-67.148437 0c0 13.90625-11.273438 25.179688-25.179688 25.179688s-25.179687-11.273438-25.179687-25.179688v-8.390625h50.359375zm-67.144532 0c0 13.90625-11.277343 25.179688-25.183593 25.179688s-25.179688-11.273438-25.179688-25.179688v-8.390625h50.363281zm-184.65625-8.390625h50.359376v8.390625c0 13.90625-11.273438 25.179688-25.179688 25.179688s-25.179688-11.273438-25.179688-25.179688zm67.144532 0h50.363281v8.390625c0 13.90625-11.273437 25.179688-25.179687 25.179688-13.910157 0-25.183594-11.273438-25.183594-25.179688zm-67.144532 184.652344v-25.179688h92.328126v25.179688zm10.070313-41.964844c7.117187-16.433594 34.773437-16.789062 36.09375-16.789062 1.316406 0 28.996094.355468 36.089844 16.789062zm132.617187 41.964844v-25.179688h92.328126v25.179688zm10.070313-41.964844c7.117187-16.433594 34.777344-16.789062 36.09375-16.789062s29 .355468 36.089844 16.789062zm143.589844-56.335937c1.527343-1.566407 3.628906-2.4375 5.816406-2.417969 2.261719-.007812 4.421875.921875 5.972656 2.566406 1.566407 1.53125 2.441407 3.636719 2.417969 5.828125v2.433594c-.21875 7.804687 1.796875 15.515625 5.808594 22.214844.109375.160156.144531.363281.246094.53125h-28.875c.125-.210938.167968-.445313.300781-.65625 3.96875-6.671875 5.957031-14.332031 5.734375-22.089844v-2.433594c-.007813-2.261719.921875-4.425781 2.566406-5.976562zm-10.972657 47.941406h33.574219v16.789063h-33.574219zm16.789063 50.359375h-16.789063v-16.785156h33.574219v16.785156zm33.570313 0v-58.753906c.035156-6.371094-1.78125-12.617188-5.234376-17.976563-2.246093-4.011719-3.339843-8.566406-3.15625-13.160156v-2.433594c0-13.910156-11.273437-25.183593-25.179687-25.183593-13.910156 0-25.183594 11.273437-25.183594 25.183593v2.433594c.1875 4.542969-.878906 9.050781-3.078125 13.035156-3.496094 5.386719-5.339844 11.679688-5.3125 18.101563v58.753906h-16.789062v-25.179688c-.019532-6.164062-3.433594-11.820312-8.878906-14.710937-4.238282-27.992187-36.445313-35.648437-54.070313-35.648437s-49.832031 7.65625-54.070313 35.648437c-5.445312 2.890625-8.859374 8.546875-8.882812 14.710937v25.179688h-16.785156v-25.179688c-.023438-6.164062-3.433594-11.820312-8.878906-14.710937-4.238282-27.992187-36.445313-35.648437-54.070313-35.648437-17.628906 0-49.832031 7.65625-54.070313 35.648437-5.449218 2.890625-8.859374 8.546875-8.882812 14.710937v25.179688h-16.785156v-135.132812c10.101562-2.117188 19.066406-7.882813 25.179687-16.199219 7.828125 10.714843 20.300781 17.050781 33.574219 17.050781 13.269531 0 25.742188-6.335938 33.574219-17.050781 7.828125 10.714843 20.300781 17.050781 33.574219 17.050781 13.269531 0 25.742187-6.335938 33.570312-17.050781 7.832031 10.714843 20.304688 17.050781 33.574219 17.050781 13.273437 0 25.746093-6.335938 33.574219-17.050781 7.832031 10.714843 20.304687 17.050781 33.574218 17.050781 13.269532 0 25.746094-6.335938 33.574219-17.050781 7.828125 10.714843 20.304687 17.050781 33.574219 17.050781 13.269531 0 25.742187-6.335938 33.574218-17.050781 6.113282 8.316406 15.078126 14.082031 25.179688 16.199219v135.132812zm50.363281-176.261719c0 13.90625-11.273438 25.179688-25.179688 25.179688s-25.183593-11.273438-25.183593-25.179688v-8.390625h50.363281zm-34.589844-47.898437 22.722656 22.71875h-42.859375l-20.144531-25.179688h34.339844c2.226562 0 4.367187.882813 5.941406 2.460938zm-384.066406 0c1.574219-1.578125 3.710937-2.460938 5.941406-2.460938h34.335937l-20.140624 25.179688h-42.859376zm0 0"/><path d="m157.261719 278.765625c-28.859375-11.382813-60.125-4.347656-76.046875 17.054687-3.117188 4.207032-4.101563 9.625-2.664063 14.65625 1.4375 5.035157 5.136719 9.113282 10.007813 11.035157l89.8125 35.378906c4.847656 1.914063 10.308594 1.449219 14.761718-1.257813 4.578126-2.769531 7.585938-7.527343 8.117188-12.851562 2.796875-26.386719-15.324219-52.71875-43.988281-64.015625zm27.253906 62.511719-89.8125-35.425782c8.535156-10.394531 21.460937-16.175781 34.902344-15.605468 7.363281.023437 14.660156 1.425781 21.511719 4.140625 21.320312 8.410156 35.394531 28.023437 33.398437 46.890625zm0 0"/><path d="m243.496094 268.652344h-33.574219c-4.636719 0-8.394531 3.757812-8.394531 8.390625 0 4.636719 3.757812 8.394531 8.394531 8.394531h8.390625v33.574219c0 4.636719 3.757812 8.394531 8.394531 8.394531s8.394531-3.757812 8.394531-8.394531v-33.574219h8.394532c4.632812 0 8.390625-3.757812 8.390625-8.394531 0-4.632813-3.757813-8.390625-8.390625-8.390625zm0 0"/><path d="m390.378906 327.40625c16.226563 0 29.378906-13.152344 29.378906-29.378906 0-16.222656-13.152343-29.375-29.378906-29.375-16.222656 0-29.375 13.152344-29.375 29.375 0 16.226562 13.152344 29.378906 29.375 29.378906zm0-41.96875c6.953125 0 12.589844 5.636719 12.589844 12.589844s-5.636719 12.589844-12.589844 12.589844-12.589844-5.636719-12.589844-12.589844 5.636719-12.589844 12.589844-12.589844zm0 0"/><path d="m337.753906 285.4375c3.34375-.019531 6.558594 1.300781 8.921875 3.667969 2.105469 2.183593 5.226563 3.058593 8.160157 2.289062 2.9375-.769531 5.226562-3.058593 5.996093-5.996093.769531-2.933594-.105469-6.054688-2.289062-8.160157-11.476563-11.457031-30.070313-11.449219-41.53125.023438-11.464844 11.46875-11.464844 30.0625 0 41.53125 11.460937 11.472656 30.054687 11.484375 41.53125.027343 2.183593-2.109374 3.058593-5.230468 2.289062-8.164062s-3.058593-5.226562-5.996093-5.996094c-2.933594-.765625-6.054688.109375-8.160157 2.289063-4.03125 4.015625-10.257812 4.828125-15.183593 1.980469-4.925782-2.847657-7.332032-8.644532-5.867188-14.144532 1.46875-5.496094 6.4375-9.328125 12.128906-9.347656zm0 0"/><path d="m293.855469 327.40625c4.636719 0 8.394531-3.757812 8.394531-8.394531v-25.179688c0-13.90625-11.273438-25.179687-25.179688-25.179687-13.910156 0-25.183593 11.273437-25.183593 25.179687v25.179688c0 4.636719 3.757812 8.394531 8.394531 8.394531s8.394531-3.757812 8.394531-8.394531v-8.394531h16.785157v8.394531c0 4.636719 3.757812 8.394531 8.394531 8.394531zm-25.179688-33.574219c0-4.636719 3.757813-8.394531 8.394531-8.394531 4.632813 0 8.390626 3.757812 8.390626 8.394531zm0 0"/></svg>